HIERARCHY
ROOT Hips
{
	OFFSET 0.00000 0.00000 0.00000
	CHANNELS 6 Xposition Yposition Zposition Zrotation Yrotation Xrotation 
	JOINT LHipJoint
	{
		OFFSET 0 0 0
		CHANNELS 3 Zrotation Yrotation Xrotation
		JOINT LeftHip
		{
			OFFSET 1.41496 -1.84582 0.78394
			CHANNELS 3 Zrotation Yrotation Xrotation
			JOINT LeftKnee
			{
				OFFSET 2.58040 -7.08960 0.00000
				CHANNELS 3 Zrotation Yrotation Xrotation
				JOINT LeftAnkle
				{
					OFFSET 2.64719 -7.27309 0.00000
					CHANNELS 3 Zrotation Yrotation Xrotation
					JOINT LeftToe
					{
						OFFSET 0.20718 -0.56921 2.20259
						CHANNELS 3 Zrotation Yrotation Xrotation
						End Site
						{
							OFFSET 0.00000 -0.00000 1.14243
						}
					}
				}
			}
		}
	}
	JOINT RHipJoint
	{
		OFFSET 0 0 0
		CHANNELS 3 Zrotation Yrotation Xrotation
		JOINT RightHip
		{
			OFFSET -1.40551 -1.84582 0.78394
			CHANNELS 3 Zrotation Yrotation Xrotation
			JOINT RightKnee
			{
				OFFSET -2.56572 -7.04926 0.00000
				CHANNELS 3 Zrotation Yrotation Xrotation
				JOINT RightAnkle
				{
					OFFSET -2.57974 -7.08778 0.00000
					CHANNELS 3 Zrotation Yrotation Xrotation
					JOINT RightToe
					{
						OFFSET -0.26704 -0.73369 2.20815
						CHANNELS 3 Zrotation Yrotation Xrotation
						End Site
						{
							OFFSET -0.00000 -0.00000 1.16246
						}
					}
				}
			}
		}
	}
	JOINT lowerback
	{
		OFFSET 0 0 0
		CHANNELS 3 Zrotation Yrotation Xrotation
		JOINT Chest
		{
			OFFSET -0.04690 2.05196 -0.07017
			CHANNELS 3 Zrotation Yrotation Xrotation
			JOINT Chest2
			{
				OFFSET 0.04085 2.05260 0.00800
				CHANNELS 3 Zrotation Yrotation Xrotation
				JOINT lowerneck
				{
					OFFSET 0 0 0
					CHANNELS 3 Zrotation Yrotation Xrotation
					JOINT Neck
					{
						OFFSET -0.03582 1.80995 0.19301
						CHANNELS 3 Zrotation Yrotation Xrotation
						JOINT Head
						{
							OFFSET 0.00952 1.80195 -0.36389
							CHANNELS 3 Zrotation Yrotation Xrotation
							End Site
							{
								OFFSET 0.00392 1.85062 -0.14494
							}
						}
					}
				}
				JOINT LeftCollar
				{
					OFFSET 0 0 0
					CHANNELS 3 Zrotation Yrotation Xrotation
					JOINT LeftShoulder
					{
						OFFSET 3.55224 1.39726 -0.13667
CHANNELS 3 Zrotation Xrotation Yrotation
						JOINT LeftElbow
						{
OFFSET 0 -5.145070 -0.000000
CHANNELS 3 Zrotation Xrotation Yrotation
							JOINT LeftWrist
							{
OFFSET 0 -3.506460 0.000000
CHANNELS 3 Zrotation Xrotation Yrotation
								JOINT lhand
								{
									OFFSET 0 0 0
CHANNELS 3 Zrotation Xrotation Yrotation
									JOINT LFingers
									{
OFFSET 0 -0.629970 0.000000
CHANNELS 3 Zrotation Xrotation Yrotation
										End Site
										{
OFFSET 0 -0.507900 0.000000
										}
									}
								}
								JOINT LThumb
								{
OFFSET 0 0.000000 0.000000
CHANNELS 3 Zrotation Xrotation Yrotation
									End Site
									{
OFFSET 0 -0.515650 0.515650
									}
								}
							}
						}
					}
				}
				JOINT RightCollar
				{
					OFFSET 0 0 0
					CHANNELS 3 Zrotation Yrotation Xrotation
					JOINT RightShoulder
					{
						OFFSET -3.06467 1.61290 -0.28813
CHANNELS 3 Zrotation Xrotation Yrotation
						JOINT RightElbow
						{
OFFSET 0 -5.232000 -0.000000
CHANNELS 3 Zrotation Xrotation Yrotation
							JOINT RightWrist
							{
OFFSET 0 -3.656410 0.000000
CHANNELS 3 Zrotation Xrotation Yrotation
								JOINT rhand
								{
									OFFSET 0 0 0
CHANNELS 3 Zrotation Xrotation Yrotation
									JOINT RFingers
									{
OFFSET 0 -0.656810 0.000000
CHANNELS 3 Zrotation Xrotation Yrotation
										End Site
										{
OFFSET 0 -0.529530 0.000000
										}
									}
								}
								JOINT RThumb
								{
OFFSET 0 0.000000 0.000000
CHANNELS 3 Zrotation Xrotation Yrotation
									End Site
									{
OFFSET 0 -0.537620 0.537620
									}
								}
							}
						}
					}
				}
			}
		}
	}
}
MOTION
Frames: 9
Frame Time: .0083333
-5.7691 15.4697 -21.0342 -175.9970 -40.3109 -190.8740 0.0000 0.0000 0.0000 -10.1606 -16.8142 -38.5779 18.6932 19.9590 86.1768 -0.1424 -23.1119 -15.2585 0.1485 -2.4833 -6.8435 0.0000 0.0000 0.0000 19.5326 6.8355 -32.7612 -13.6190 -18.9944 71.0374 -1.6764 -5.3087 -26.8553 -2.1228 9.1172 -26.1627 -2.1655 -1.3338 19.4597 0.0164 -2.3594 -0.2063 1.9334 -1.0276 -11.0950 -7.4681 -5.3592 -19.6482 6.6537 -6.4287 13.4027 2.6132 -2.8226 7.8144 0.0000 -0.0000 0.0000 2.2637 2.5399 -57.3742 125.3585 -54.7042 90.0768 36.2977 -0.7448 11.771 0.0 0.0 0.0 -7.1250 0.0 0.0 6.2628 15.5416 4.3824 0.0000 -0.0000 0.0000 -11.0103 1.2535 37.4099 -57.1746 -55.5088 -32.001 -30.0698 -9.8648 -5.6953 0.0 0.0 0.0 7.1250 0.0 -0.0 -2.4858 23.4073 -1.2949
-5.8284 15.5778 -21.1180 -176.0910 -40.5111 -190.3160 0.0000 0.0000 0.0000 -10.8263 -16.7333 -38.3363 17.8312 19.8868 83.6472 -0.0345 -22.8998 -15.8939 0.1380 -2.3940 -6.5957 0.0000 0.0000 0.0000 19.5941 6.8619 -32.1696 -13.2342 -18.8651 69.8512 -1.6584 -5.6046 -26.8923 -2.0553 8.9803 -25.7337 -2.1239 -1.3078 19.1999 0.0678 -2.2990 -0.2493 1.9405 -0.9997 -10.9980 -7.5186 -5.4457 -19.6150 6.5466 -6.5008 13.1990 2.5763 -2.8701 7.7439 -0.0000 0.0000 0.0000 2.4176 3.1775 -56.4753 124.1027 -55.1137 89.0492 36.6162 -0.3331 11.8315 0.0 0.0 0.0 -7.1250 0.0 0.0 6.4697 15.4155 4.5467 -0.0000 0.0000 0.0000 -11.2075 1.1705 36.8464 -57.7003 -55.6653 -32.4347 -29.9083 -10.0566 -5.5384 0.0 0.0 0.0 7.1250 0.0 -0.0 -2.3765 23.5981 -1.2274
-5.8881 15.6853 -21.2014 -176.1330 -40.6603 -189.8000 0.0000 0.0000 0.0000 -11.4053 -16.6250 -37.9948 16.9577 19.7766 81.0729 0.0891 -22.4467 -16.4693 0.1185 -2.2194 -6.1125 0.0000 0.0000 0.0000 19.7127 6.9377 -31.5553 -12.8438 -18.7250 68.6397 -1.6355 -5.8985 -26.8985 -1.9824 8.8294 -25.2630 -2.0608 -1.2615 18.9200 0.1366 -2.2049 -0.2862 1.9448 -0.9571 -10.8841 -7.5798 -5.5385 -19.5509 6.4714 -6.5876 12.9901 2.5507 -2.9229 7.6693 -0.0000 -0.0000 0.0000 2.5738 3.7991 -55.5656 122.4820 -55.6115 87.7157 36.7496 -0.1372 11.7965 0.0 0.0 0.0 -7.1250 0.0 0.0 6.5649 15.4357 4.6116 -0.0000 -0.0000 0.0000 -11.356 1.1388 36.2213 -58.1907 -55.8082 -32.84 -29.755 -10.2359 -5.3225 0.0 0.0 0.0 7.1250 0.0 -0.0 -2.2763 23.8554 -1.1621
-5.9490 15.7917 -21.2837 -176.1710 -40.7734 -189.2910 0.0000 0.0000 0.0000 -11.9472 -16.5104 -37.5447 16.0871 19.6289 78.4911 0.2267 -21.7298 -16.9822 0.0903 -1.9379 -5.3341 0.0000 0.0000 0.0000 19.8330 7.0358 -30.9327 -12.4519 -18.5752 67.4143 -1.6096 -6.1740 -26.8758 -1.9083 8.6724 -24.7758 -2.0000 -1.1972 18.6183 0.2079 -2.0875 -0.3219 1.9464 -0.9034 -10.7572 -7.6511 -5.6373 -19.4526 6.4251 -6.6884 12.7777 2.5351 -2.9810 7.5904 -0.0000 -0.0000 0.0000 2.7296 4.4042 -54.6544 120.4824 -56.18 86.06 36.7113 -0.1512 11.682 0.0 0.0 0.0 -7.1250 0.0 0.0 6.5555 15.581 4.5843 -0.0000 -0.0000 0.0000 -11.459 1.1557 35.547 -58.6439 -55.9376 -33.2152 -29.6096 -10.4023 -5.0656 0.0 0.0 0.0 7.1250 0.0 -0.0 -2.1833 24.1587 -1.0993
-6.0108 15.8958 -21.3655 -176.1990 -40.8557 -188.8020 0.0000 0.0000 0.0000 -12.4447 -16.3903 -36.9810 15.2441 19.4488 75.9709 0.3639 -20.8249 -17.4088 0.0546 -1.5074 -4.1462 0.0000 0.0000 0.0000 19.9614 7.1443 -30.2986 -12.0622 -18.4168 66.1858 -1.5822 -6.4303 -26.8333 -1.8348 8.5132 -24.2840 -1.9420 -1.1204 18.3053 0.2817 -1.9541 -0.3592 1.9484 -0.8419 -10.6260 -7.7281 -5.7382 -19.3102 6.4058 -6.7998 12.5633 2.5291 -3.0429 7.5057 0.0000 0.0000 0.0000 2.885 4.995 -53.738 118.0951 -56.7965 84.0694 36.533 -0.3682 11.5194 0.0 0.0 0.0 -7.1250 0.0 0.0 6.4580 15.8075 4.4835 0.0000 0.0000 0.0000 -11.5174 1.2153 34.8501 -59.0402 -56.0487 -33.5437 -29.4837 -10.5422 -4.7759 0.0 0.0 0.0 7.1250 0.0 -0.0 -2.1057 24.4977 -1.0437
-6.0736 15.9968 -21.4468 -176.2130 -40.9074 -188.3380 0.0000 0.0000 0.0000 -12.8958 -16.2640 -36.3149 14.4536 19.2459 73.5852 0.4848 -19.8460 -17.7217 0.0192 -0.8939 -2.4569 0.0000 0.0000 0.0000 20.0991 7.2535 -29.6567 -11.6779 -18.2512 64.9642 -1.5548 -6.6577 -26.7765 -1.7612 8.3498 -23.7818 -1.8828 -1.0350 17.9811 0.3582 -1.8092 -0.3989 1.9502 -0.7748 -10.4916 -7.8168 -5.8358 -19.1355 6.4184 -6.9131 12.3614 2.5361 -3.1041 7.4219 -0.0000 0.0000 0.0000 3.0342 5.5692 -52.8197 115.3125 -57.4349 81.7325 36.263 -0.7551 11.3 0.0 0.0 0.0 -7.1250 0.0 0.0 6.3053 16.1166 4.3338 -0.0000 0.0000 0.0000 -11.5374 1.3076 34.1542 -59.3639 -56.138 -33.8124 -29.4009 -10.6587 -4.4718 0.0 0.0 0.0 7.1250 0.0 -0.0 -2.0601 24.8502 -1.0042
-6.1378 16.0943 -21.5277 -176.2110 -40.9287 -187.9090 0.0000 0.0000 0.0000 -13.3029 -16.1285 -35.5528 13.7346 19.0316 71.3923 0.5857 -18.8693 -17.9400 0.0003 -0.1178 -0.3238 0.0000 0.0000 0.0000 20.2478 7.3527 -29.0028 -11.3012 -18.0793 63.7558 -1.5291 -6.8533 -26.7134 -1.6885 8.1846 -23.2761 -1.8226 -0.9459 17.6519 0.4383 -1.6593 -0.4446 1.9551 -0.7048 -10.3609 -7.9032 -5.9251 -18.9190 6.4425 -7.0227 12.1752 2.5480 -3.1632 7.3366 -0.0000 0.0000 0.0000 3.1731 6.1379 -51.8864 112.1381 -58.0647 79.0475 35.9086 -1.271 11.0433 0.0 0.0 0.0 -7.1250 0.0 0.0 6.0988 16.4818 4.1416 -0.0000 0.0000 0.0000 -11.5262 1.4273 33.4874 -59.5946 -56.2009 -34.004 -29.3756 -10.7588 -4.1647 0.0 0.0 0.0 7.1250 0.0 -0.0 -2.0569 25.203 -0.9858
-6.2032 16.1880 -21.6081 -176.2020 -40.9235 -187.5030 0.0000 0.0000 0.0000 -13.6748 -15.9928 -34.7149 13.0957 18.8164 69.4225 0.6763 -17.9270 -18.1457 0.0124 0.7204 1.9799 0.0000 0.0000 0.0000 20.3962 7.4333 -28.3453 -10.9332 -17.9022 62.5644 -1.5058 -7.0093 -26.6437 -1.6188 8.0222 -22.7816 -1.7661 -0.8579 17.3130 0.5200 -1.5119 -0.4963 1.9653 -0.6355 -10.2310 -7.9846 -6.0009 -18.6755 6.4713 -7.1200 12.0150 2.5629 -3.2163 7.2549 0.0000 -0.0000 0.0000 3.2957 6.6959 -50.9352 108.5913 -58.6529 76.0277 35.4961 -1.8663 10.7446 0.0 0.0 0.0 -7.1250 0.0 0.0 5.8558 16.9032 3.9209 0.0000 -0.0000 0.0000 -11.4856 1.5602 32.8665 -59.7138 -56.2332 -34.1031 -29.4138 -10.8451 -3.8689 0.0 0.0 0.0 7.1250 0.0 -0.0 -2.1002 25.5401 -0.9901
-6.2701 16.2779 -21.6880 -176.2020 -40.8942 -187.1140 0.0000 0.0000 0.0000 -14.0281 -15.8597 -33.8164 12.5331 18.6070 67.6690 0.7557 -17.0913 -18.3576 0.0608 1.5910 4.3767 0.0000 0.0000 0.0000 20.5282 7.4879 -27.6844 -10.5743 -17.7204 61.3911 -1.4861 -7.1160 -26.5694 -1.5519 7.8627 -22.2980 -1.7199 -0.7717 16.9710 0.5998 -1.3698 -0.5562 1.9816 -0.5678 -10.1079 -8.0667 -6.0632 -18.4141 6.5029 -7.2032 11.8895 2.5811 -3.2628 7.1808 -0.0000 -0.0000 0.0000 3.3987 7.2472 -49.9638 104.6995 -59.1676 72.6945 35.0556 -2.4885 10.4025 0.0 0.0 0.0 -7.1250 0.0 0.0 5.5964 17.3768 3.6873 -0.0000 -0.0000 0.0000 -11.4224 1.7023 32.2995 -59.7154 -56.2336 -34.1044 -29.5159 -10.9235 -3.5913 0.0 0.0 0.0 7.1250 0.0 -0.0 -2.1907 25.8538 -1.0168
